# xmcd CD database file
#
# Track frame offsets:
#	150
#	13705
#	28172
#	41022
#	54860
#	67770
#	81592
#	94330
#	108727
#	122315
#	135520
#	147540
#	160615
#	174812
#	187915
#	200845
#	214620
#	227462
#
# Disc length: 3206 seconds
#
# Revision: 2
# Processed by: cddbd v1.5.2PL0 Copyright (c) Steve Scherf et al.
# Submitted via: CDex 1.70beta2
#
DISCID=ee0c8412
DTITLE=Skip James - Complete 1931 Recordings
DYEAR=1900
DGENRE=Blues
TTITLE0=Devil Got My Woman
TTITLE1=Cypress Grove Blues
TTITLE2=Cherry Ball Blues
TTITLE3=Illinois Blues
TTITLE4=Four O'Clock Blues
TTITLE5=Hard-Luck Child
TTITLE6=Hard Time Killin' Floor Blues
TTITLE7=Yola My Blues Away
TTITLE8=Jesus Is A Mighty Good Leader
TTITLE9=Be Ready When He Comes
TTITLE10=Drunken Spree
TTITLE11=I'm So Glad
TTITLE12=Special Rider Blues
TTITLE13=How Long Buck
TTITLE14=Little Cow And Calf Is Gonna Die Blues
TTITLE15=What Am I To Do Blues
TTITLE16=22-20 Blues
TTITLE17=If You Haven't Any Hay Get On Down The Road
EXTD=
EXTT0=
EXTT1=
EXTT2=
EXTT3=
EXTT4=
EXTT5=
EXTT6=
EXTT7=
EXTT8=
EXTT9=
EXTT10=
EXTT11=
EXTT12=
EXTT13=
EXTT14=
EXTT15=
EXTT16=
EXTT17=
PLAYORDER=
